# xmcd
#
# Track frame offsets: 
#        150
#        12078
#        23935
#        37373
#        50433
#        62742
#        75816
#        88680
#        101867
#        114089
#        125860
#        138718
#        150200
#        163501
#        178716
#        191866
#        204193
#        217729
#        231202
#        245020
#        256602
#        268406
#        282083
#        294861
#        308439
#        320610
#        332496
#
# Disc length: 4623 seconds
#
# Revision: 2
# Processed by: cddbd v1.5.2PL0 Copyright (c) Steve Scherf et al.
# Submitted via: ExactAudioCopy v1.3
#
DISCID=75120d1b
DTITLE=Lightnin' Hopkins - Texas Thunderbolt
DYEAR=2007
DGENRE=Blues
TTITLE0=Beggin' You To Stay
TTITLE1=Bad Luck and Trouble
TTITLE2=Last Affair
TTITLE3=Jake Head Boogie
TTITLE4=Lonesome Dog Blues
TTITLE5=Needed Time
TTITLE6=One Kind Favour
TTITLE7=Another Fool In Town
TTITLE8=Candy Kitchen
TTITLE9=Black Cat
TTITLE10=Santa Fe Blues
TTITLE11=Some Day Baby
TTITLE12=Black Cat Bone
TTITLE13=Disagreeable
TTITLE14=Dark and Cloudy
TTITLE15=Coffee Blues
TTITLE16=Praying Ground Blues
TTITLE17=Give Me Central 209
TTITLE18=Long Way From Texas
TTITLE19=You Caused My Heart To Weep
TTITLE20=Tap Dance Boogie
TTITLE21=Dirty House
TTITLE22=Freight Train Blues
TTITLE23=One Kind of Favour
TTITLE24=Contrary Mary
TTITLE25=I'm Beggin' You
TTITLE26=Sad News From Korea
EXTD=upc =805520-015912\nrecorded in Houston, TX, USA in 1950-1952 and 
EXTD=New York, NY, USA in 1951
EXTT0=
EXTT1=
EXTT2=
EXTT3=
EXTT4=
EXTT5=
EXTT6=
EXTT7=
EXTT8=
EXTT9=
EXTT10=
EXTT11=
EXTT12=
EXTT13=
EXTT14=
EXTT15=
EXTT16=
EXTT17=
EXTT18=
EXTT19=
EXTT20=
EXTT21=
EXTT22=
EXTT23=
EXTT24=
EXTT25=
EXTT26=
PLAYORDER=
